HIERARCHY
ROOT Hips
{
  OFFSET 5.72205e-005 65.662 3.42586
  CHANNELS 6 Xposition Yposition Zposition Zrotation Xrotation Yrotation
  JOINT Chest
  {
    OFFSET 0 8.7983 -4.7612
    CHANNELS 3 Zrotation Xrotation Yrotation
    JOINT Chest2
    {
      OFFSET 0 8.0291 0.4195
      CHANNELS 3 Zrotation Xrotation Yrotation
      JOINT Chest3
      {
        OFFSET 0 9.9351 -2.2114
        CHANNELS 3 Zrotation Xrotation Yrotation
        JOINT Neck
        {
          OFFSET 0 22.3885 -0.4656
          CHANNELS 3 Zrotation Xrotation Yrotation
          JOINT Head
          {
            OFFSET -0.0001 12.643 3.4389
            CHANNELS 3 Zrotation Xrotation Yrotation
            End Site
            {
              OFFSET 0.0001 17.6655 0.5274
            }
          }
        }
        JOINT LeftCollar
        {
          OFFSET 2.2603 21.606 7.4023
          CHANNELS 3 Zrotation Xrotation Yrotation
          JOINT LeftShoulder
          {
            OFFSET 13.5163 -1.1332 -5.0146
            CHANNELS 3 Zrotation Xrotation Yrotation
            JOINT LeftElbow
            {
              OFFSET -0.0995 -28.05 -0.2431
              CHANNELS 3 Zrotation Xrotation Yrotation
              JOINT LeftWrist
              {
                OFFSET 0.0679 -23.3996 -0.1402
                CHANNELS 3 Zrotation Xrotation Yrotation
                JOINT LeftFinger1
                {
                  OFFSET 0.7932 -9.069 2.5189
                  CHANNELS 3 Zrotation Xrotation Yrotation
                  JOINT LeftFinger11
                  {
                    OFFSET -0.8272 -3.3923 0.5977
                    CHANNELS 3 Zrotation Xrotation Yrotation
                    JOINT LeftFinger12
                    {
                      OFFSET -0.5649 -2.3158 0.4082
                      CHANNELS 3 Zrotation Xrotation Yrotation
                      End Site
                      {
                        OFFSET -0.4919 -1.6479 0.2673
                      }
                    }
                  }
                }
                JOINT LeftFinger2
                {
                  OFFSET 0.9159 -9.2044 0.2193
                  CHANNELS 3 Zrotation Xrotation Yrotation
                  JOINT LeftFinger21
                  {
                    OFFSET 0.0117 -4.1944 -0.0248
                    CHANNELS 3 Zrotation Xrotation Yrotation
                    JOINT LeftFinger22
                    {
                      OFFSET 0.0071 -2.3249 -0.0142
                      CHANNELS 3 Zrotation Xrotation Yrotation
                      End Site
                      {
                        OFFSET -0.1475 -2.0882 0.0028
                      }
                    }
                  }
                }
                JOINT LeftFinger3
                {
                  OFFSET 0.6113 -8.7231 -2.0637
                  CHANNELS 3 Zrotation Xrotation Yrotation
                  JOINT LeftFinger31
                  {
                    OFFSET -0.1927 -3.8059 -0.2383
                    CHANNELS 3 Zrotation Xrotation Yrotation
                    JOINT LeftFinger32
                    {
                      OFFSET -0.1091 -2.1688 -0.1362
                      CHANNELS 3 Zrotation Xrotation Yrotation
                      End Site
                      {
                        OFFSET -0.2358 -1.9176 -0.0906
                      }
                    }
                  }
                }
                JOINT LeftFinger4
                {
                  OFFSET -0.6151 -8.0947 -3.5641
                  CHANNELS 3 Zrotation Xrotation Yrotation
                  JOINT LeftFinger41
                  {
                    OFFSET -0.4882 -2.341 -0.6462
                    CHANNELS 3 Zrotation Xrotation Yrotation
                    JOINT LeftFinger42
                    {
                      OFFSET -0.3575 -1.7167 -0.4742
                      CHANNELS 3 Zrotation Xrotation Yrotation
                      End Site
                      {
                        OFFSET -0.4187 -1.5237 -0.3496
                      }
                    }
                  }
                }
                JOINT LeftFinger0
                {
                  OFFSET -1.42 -1.8761 1.4223
                  CHANNELS 3 Zrotation Xrotation Yrotation
                  JOINT LeftFinger01
                  {
                    OFFSET -1.1471 -3.4929 2.6334
                    CHANNELS 3 Zrotation Xrotation Yrotation
                    JOINT LeftFinger02
                    {
                      OFFSET -0.823 -2.3 1.6571
                      CHANNELS 3 Zrotation Xrotation Yrotation
                      End Site
                      {
                        OFFSET -0.5822 -1.6914 1.1582
                      }
                    }
                  }
                }
              }
            }
          }
        }
        JOINT RightCollar
        {
          OFFSET -2.2603 21.606 7.4023
          CHANNELS 3 Zrotation Xrotation Yrotation
          JOINT RightShoulder
          {
            OFFSET -13.5187 -1.1334 -5.0155
            CHANNELS 3 Zrotation Xrotation Yrotation
            JOINT RightElbow
            {
              OFFSET 0.0994 -28.0499 -0.2431
              CHANNELS 3 Zrotation Xrotation Yrotation
              JOINT RightWrist
              {
                OFFSET -0.0679 -23.3996 -0.1402
                CHANNELS 3 Zrotation Xrotation Yrotation
                JOINT RightFinger1
                {
                  OFFSET -0.7932 -9.0691 2.5189
                  CHANNELS 3 Zrotation Xrotation Yrotation
                  JOINT RightFinger11
                  {
                    OFFSET 0.8272 -3.3923 0.5977
                    CHANNELS 3 Zrotation Xrotation Yrotation
                    JOINT RightFinger12
                    {
                      OFFSET 0.565 -2.3158 0.4082
                      CHANNELS 3 Zrotation Xrotation Yrotation
                      End Site
                      {
                        OFFSET 0.4919 -1.6479 0.2673
                      }
                    }
                  }
                }
                JOINT RightFinger2
                {
                  OFFSET -0.916 -9.2044 0.2193
                  CHANNELS 3 Zrotation Xrotation Yrotation
                  JOINT RightFinger21
                  {
                    OFFSET -0.0117 -4.1944 -0.0248
                    CHANNELS 3 Zrotation Xrotation Yrotation
                    JOINT RightFinger22
                    {
                      OFFSET -0.0071 -2.3249 -0.0142
                      CHANNELS 3 Zrotation Xrotation Yrotation
                      End Site
                      {
                        OFFSET 0.1475 -2.0882 0.0028
                      }
                    }
                  }
                }
                JOINT RightFinger3
                {
                  OFFSET -0.6113 -8.7231 -2.0637
                  CHANNELS 3 Zrotation Xrotation Yrotation
                  JOINT RightFinger31
                  {
                    OFFSET 0.1927 -3.8059 -0.2383
                    CHANNELS 3 Zrotation Xrotation Yrotation
                    JOINT RightFinger32
                    {
                      OFFSET 0.1091 -2.1688 -0.1362
                      CHANNELS 3 Zrotation Xrotation Yrotation
                      End Site
                      {
                        OFFSET 0.2358 -1.9176 -0.0906
                      }
                    }
                  }
                }
                JOINT RightFinger4
                {
                  OFFSET 0.6151 -8.0947 -3.564
                  CHANNELS 3 Zrotation Xrotation Yrotation
                  JOINT RightFinger41
                  {
                    OFFSET 0.4882 -2.341 -0.6462
                    CHANNELS 3 Zrotation Xrotation Yrotation
                    JOINT RightFinger42
                    {
                      OFFSET 0.3574 -1.7166 -0.4742
                      CHANNELS 3 Zrotation Xrotation Yrotation
                      End Site
                      {
                        OFFSET 0.4187 -1.5237 -0.3496
                      }
                    }
                  }
                }
                JOINT RightFinger0
                {
                  OFFSET 1.4199 -1.8761 1.4221
                  CHANNELS 3 Zrotation Xrotation Yrotation
                  JOINT RightFinger01
                  {
                    OFFSET 1.1472 -3.4929 2.6336
                    CHANNELS 3 Zrotation Xrotation Yrotation
                    JOINT RightFinger02
                    {
                      OFFSET 0.8229 -2.3 1.6571
                      CHANNELS 3 Zrotation Xrotation Yrotation
                      End Site
                      {
                        OFFSET 0.5822 -1.6914 1.1582
                      }
                    }
                  }
                }
              }
            }
          }
        }
      }
    }
  }
  JOINT RightHip
  {
    OFFSET -9.412 3.9771 -0.7758
    CHANNELS 3 Zrotation Xrotation Yrotation
    JOINT RightKnee
    {
      OFFSET -0.7531 -40.938 0
      CHANNELS 3 Zrotation Xrotation Yrotation
      JOINT RightAnkle
      {
        OFFSET 0 -40.1986 0
        CHANNELS 3 Zrotation Xrotation Yrotation
        JOINT RightToe
        {
          OFFSET 0 -4.4182 9.239
          CHANNELS 3 Zrotation Xrotation Yrotation
          End Site
          {
            OFFSET 0 0 6.1981
          }
        }
      }
    }
  }
  JOINT LeftHip
  {
    OFFSET 9.4119 3.9773 -0.7758
    CHANNELS 3 Zrotation Xrotation Yrotation
    JOINT LeftKnee
    {
      OFFSET 0.7532 -40.9383 0
      CHANNELS 3 Zrotation Xrotation Yrotation
      JOINT LeftAnkle
      {
        OFFSET 0 -40.1986 0
        CHANNELS 3 Zrotation Xrotation Yrotation
        JOINT LeftToe
        {
          OFFSET 0 -4.4182 9.239
          CHANNELS 3 Zrotation Xrotation Yrotation
          End Site
          {
            OFFSET 0 0 6.1981
          }
        }
      }
    }
  }
}
MOTION
Frames:	5
Frame Time:	0.0333333
5.72205e-005 65.662 3.42586 0 0 -0 0 0 -0 0 0 -0 0 0 -0 0 0 -0 0 0 -0 0 0 -12.5014 88.1196 14.2451 10.6914 -0.00160068 -0.00239207 0.000740045 -8.4365e-005 7.00714e-005 -9.52055e-007 9.93923e-017 -1.98785e-016 -1.59028e-015 9.93923e-017 -5.96354e-016 -1.59028e-015 -9.93923e-017 -5.96354e-016 -1.59028e-015 9.93923e-017 -1.98785e-016 -1.59028e-015 -0.0128176 0.00232552 8.52707e-005 9.93923e-017 5.96354e-016 -0 9.93923e-017 -1.98785e-016 -1.59028e-015 -0.0160551 0.00299681 0.000857156 -2.48481e-016 0 3.18055e-015 9.93923e-017 -1.98785e-016 -1.59028e-015 -0.0125865 0.0031206 0.00282719 0 1.98785e-016 -0 9.93923e-017 -1.98785e-016 -1.59028e-015 9.93923e-017 -5.96354e-016 -1.59028e-015 -9.93923e-017 -5.96354e-016 -1.59028e-015 -0.865644 0.16582 7.03859 -88.0329 10.2057 -10.5567 0.0015593 -0.00248883 -0.000788628 7.87605e-005 4.10553e-005 1.24965e-005 -3.97569e-016 -7.95139e-016 3.18055e-015 -1.98785e-016 -3.97569e-016 3.18055e-015 -1.98785e-016 0 3.18055e-015 -3.97569e-016 -7.95139e-016 3.18055e-015 0.0129473 0.00231697 -8.70038e-005 9.93923e-017 -7.95139e-016 1.59028e-015 -3.97569e-016 -7.95139e-016 3.18055e-015 0.0163314 0.00303369 -0.000872333 3.97569e-016 7.95139e-016 -3.18055e-015 -3.97569e-016 -7.95139e-016 3.18055e-015 0.0145763 0.00367772 -0.00326275 9.93923e-017 -3.97569e-016 -0 -3.97569e-016 -7.95139e-016 3.18055e-015 -1.98785e-016 -3.97569e-016 3.18055e-015 -1.98785e-016 0 3.18055e-015 3.42482 1.32465 -0.0626183 0.000117508 0.717283 0.000978199 -3.4257 -2.04197 -0.0604716 6.47761e-025 0 -0 -3.42483 1.34017 0.0627307 -0.000193936 0.682302 -0.0013703 3.42574 -2.02253 0.0595886 -8.45714e-024 0 -7.40531e-025 
-25.7042 21.9535 13.4771 64.8724 -11.4386 71.9871 -0.439444 7.4676 -0.0782446 -0.879846 14.9357 -0.0994504 -0.87985 14.9357 -0.0994553 -4.10521e-006 11.8988 1.48387e-006 -1.24176e-006 8.22117 8.69938e-006 5.87417 7.57803 -43.6469 52.4306 43.6599 22.7978 72.154 -46.35 80.3085 1.69606 12.3063 3.00343 -7.95139e-015 -6.36111e-015 -3.18055e-015 2.13434e-006 -2.79319e-007 -5.92716e-007 -7.95139e-015 3.18055e-015 9.54166e-015 -7.95139e-015 -6.36111e-015 -3.18055e-015 -0.0128295 0.00232765 8.65146e-005 -1.05934e-030 -6.36111e-015 -9.54166e-015 -7.95139e-015 -6.36111e-015 -3.18055e-015 -0.0160185 0.00299337 0.000858617 1.17746e-006 -7.03331e-007 9.89503e-007 -7.95139e-015 -6.36111e-015 -3.18055e-015 -0.0124893 0.00309792 0.00280504 9.54166e-015 -1.59028e-014 -1.27222e-014 -7.95139e-015 -6.36111e-015 -3.18055e-015 2.13434e-006 -2.79319e-007 -5.92716e-007 -7.95139e-015 3.18055e-015 9.54166e-015 4.25957 14.8427 27.8894 -43.7265 40.2854 -26.8439 2.00953 -59.8944 -5.5656 8.29667 -4.94213 -3.29112 -6.36111e-015 2.38542e-015 -1.15295e-014 9.5346e-007 3.29168e-006 2.57291e-006 -3.18055e-015 5.56597e-015 1.23246e-014 -6.36111e-015 2.38542e-015 -1.15295e-014 0.0129167 0.00230331 -8.00674e-005 -2.64931e-006 9.3425e-006 -4.87318e-006 -6.36111e-015 2.38542e-015 -1.15295e-014 0.0162977 0.00302748 -0.000868045 5.67907e-006 1.47329e-006 1.07507e-006 -6.36111e-015 2.38542e-015 -1.15295e-014 0.0147108 0.00371368 -0.00328655 -6.9054e-006 -1.82749e-006 -4.403e-007 -6.36111e-015 2.38542e-015 -1.15295e-014 9.5346e-007 3.29168e-006 2.57291e-006 -3.18055e-015 5.56597e-015 1.23246e-014 -20.177 -28.942 -42.5046 -44.217 58.5067 68.2991 10.343 3.7991 -23.7606 -8.82781e-032 1.59028e-015 3.18055e-015 0.0861247 0.666877 -0.896233 -1.07133 1.11863 1.03831 -10.4685 4.72717 22.4769 9.30229e-007 -2.34536e-006 -1.38175e-006 
-42.237 3.72681 13.865 96.2913 7.21454 96.5134 -0.608003 10.7659 -0.188505 -1.21226 21.5333 -0.265479 -1.21227 21.5333 -0.265483 1.61658e-005 17.0094 1.3257e-005 -9.98104e-007 11.5577 -1.86151e-005 10.8384 9.17892 -57.9017 31.9829 55.2909 31.2387 115.39 -62.0419 124.682 2.40416 17.9244 4.05409 3.18055e-015 3.18055e-015 -0 -3.73624e-007 3.00188e-006 -9.63771e-006 6.36111e-015 9.54166e-015 -0 3.18055e-015 3.18055e-015 -0 -0.0128218 0.00232942 7.60266e-005 5.97983e-006 -2.2561e-006 4.65921e-006 3.18055e-015 3.18055e-015 -0 -0.0160777 0.00299963 0.000850832 1.76556e-031 3.18055e-015 -3.18055e-015 3.18055e-015 3.18055e-015 -0 -0.0125686 0.00312253 0.00281544 -3.18055e-015 0 -3.18055e-015 3.18055e-015 3.18055e-015 -0 -3.73624e-007 3.00188e-006 -9.63771e-006 6.36111e-015 9.54166e-015 -0 3.05321 19.905 38.1143 -20.9558 52.6302 -35.9331 61.7386 -79.7976 52.2919 12.2075 -7.00203 -4.66116 3.97569e-016 4.37326e-015 3.18055e-015 1.19271e-015 5.96354e-015 1.27222e-014 -1.98785e-015 4.37326e-015 3.18055e-015 3.97569e-016 4.37326e-015 3.18055e-015 0.0129694 0.00231903 -9.63705e-005 9.15231e-007 4.60656e-006 -1.02967e-006 3.97569e-016 4.37326e-015 3.18055e-015 0.0162789 0.00302664 -0.000868273 -1.59028e-015 3.97569e-016 9.54166e-015 3.97569e-016 4.37326e-015 3.18055e-015 0.0145497 0.00366547 -0.00326285 -5.56597e-015 -1.19271e-014 -3.18055e-015 3.97569e-016 4.37326e-015 3.18055e-015 1.19271e-015 5.96354e-015 1.27222e-014 -1.98785e-015 4.37326e-015 3.18055e-015 -43.3133 -30.6996 -65.9494 -91.2947 44.1559 114.261 19.4814 4.29981 -36.2835 -2.55631e-006 3.73292e-006 1.27632e-006 1.82038 -1.38505 -1.31343 -1.52768 5.09491 1.22572 -18.9941 4.75701 32.0948 -1.88995e-006 -4.18911e-006 -7.25195e-006 
-38.1871 7.96886 13.9076 89.9984 1.99554 92.0096 -0.575871 9.89491 -0.158406 -1.14987 19.7912 -0.219079 -1.14986 19.7912 -0.219085 1.54896e-005 15.3321 -2.42227e-006 2.48434e-006 10.0093 1.76897e-005 9.25916 9.24213 -54.6226 37.3582 52.7009 28.7124 102.979 -59.9736 112.413 2.05975 16.859 3.48793 5.24909e-007 -3.78283e-006 -3.64806e-006 1.34791e-005 1.47241e-006 9.77685e-006 2.9104e-006 -6.27132e-006 -3.96722e-006 5.24909e-007 -3.78283e-006 -3.64806e-006 -0.0127771 0.00232236 9.23317e-005 -3.42688e-006 -5.21003e-006 1.76185e-007 5.24909e-007 -3.78283e-006 -3.64806e-006 -0.0160447 0.00299048 0.000871343 3.42668e-006 7.16832e-007 -1.76099e-007 5.24909e-007 -3.78283e-006 -3.64806e-006 -0.0125477 0.00311521 0.00283319 5.24889e-007 -3.44082e-006 -3.64798e-006 5.24909e-007 -3.78283e-006 -3.64806e-006 1.34791e-005 1.47241e-006 9.77685e-006 2.9104e-006 -6.27132e-006 -3.96722e-006 3.60567 19.0399 35.463 -26.2257 49.9512 -33.7461 33.436 -77.6945 24.3524 11.6866 -6.20251 -4.07753 6.97021e-006 6.1478e-006 2.538e-007 7.95139e-016 1.19271e-015 6.36111e-015 7.95139e-016 -3.97569e-016 9.54166e-015 6.97021e-006 6.1478e-006 2.538e-007 0.0129519 0.00230518 -9.0169e-005 7.28849e-007 4.63161e-006 -2.93472e-006 6.97021e-006 6.1478e-006 2.538e-007 0.0163443 0.00304235 -0.000881679 -6.60702e-006 -1.68806e-005 -1.72147e-006 6.97021e-006 6.1478e-006 2.538e-007 0.0146186 0.00367838 -0.00328051 3.64483e-007 -2.21863e-006 -1.46739e-006 6.97021e-006 6.1478e-006 2.538e-007 7.95139e-016 1.19271e-015 6.36111e-015 7.95139e-016 -3.97569e-016 9.54166e-015 -38.5698 -31.091 -61.7856 -84.1882 49.1556 107.956 16.7531 4.77805 -32.8417 -5.25943e-006 1.2505e-005 2.42972e-006 1.41565 -0.733488 -1.22101 -1.42657 3.88352 1.21395 -16.9819 4.9564 30.0227 -6.0931e-006 -1.97318e-006 -4.53513e-006 
-38.1872 7.96867 13.9079 89.9983 1.99553 92.0096 -0.578082 9.78205 -0.157308 -1.15429 19.5652 -0.217564 -1.15428 19.5653 -0.217572 7.53383e-006 14.8884 1.08912e-005 4.0115e-006 9.34712 1.32967e-005 8.94976 9.45775 -54.5367 37.7304 52.6135 28.4356 101.441 -60.7343 111.063 1.91004 17.0096 3.20861 0 0 -0 -3.18055e-015 -3.18055e-015 -0 -2.8249e-030 -1.27222e-014 -1.27222e-014 0 0 -0 -0.0128094 0.00232655 8.13238e-005 4.77083e-015 3.18055e-015 3.18055e-015 0 0 -0 -0.0160091 0.00299361 0.000854128 8.58505e-006 -1.04149e-005 4.13064e-006 0 0 -0 -0.0125713 0.00311404 0.00282489 -4.77083e-015 0 -0 0 0 -0 -3.18055e-015 -3.18055e-015 -0 -2.8249e-030 -1.27222e-014 -1.27222e-014 3.69166 19.1439 35.2063 -26.2256 49.9513 -33.7462 33.4363 -77.6945 24.3527 11.9708 -5.92116 -3.85198 7.95139e-016 1.59028e-015 -6.36111e-015 8.82781e-032 7.95139e-016 -6.36111e-015 7.95139e-016 3.18055e-015 -6.36111e-015 7.95139e-016 1.59028e-015 -6.36111e-015 0.0129486 0.00231408 -8.25461e-005 7.95139e-016 -3.97569e-016 3.18055e-015 7.95139e-016 1.59028e-015 -6.36111e-015 0.0163271 0.00302917 -0.000877558 1.59028e-015 -7.95139e-016 3.18055e-015 7.95139e-016 1.59028e-015 -6.36111e-015 0.0145715 0.00367055 -0.00325875 1.59028e-015 -1.59028e-015 -0 7.95139e-016 1.59028e-015 -6.36111e-015 8.82781e-032 7.95139e-016 -6.36111e-015 7.95139e-016 3.18055e-015 -6.36111e-015 -39.0289 -30.9371 -62.4434 -84.1863 49.1555 107.951 16.3289 5.06971 -32.4535 -8.16238e-007 -2.0547e-006 1.03788e-005 1.41589 -0.733056 -1.22101 -1.42656 3.88278 1.21396 -16.9821 4.95662 30.0228 -5.20081e-006 -2.24686e-006 -6.22573e-006 
